HIERARCHY
ROOT Hips
{
	OFFSET	0.0300000	0.000000	0.000000
	CHANNELS 6 Xposition Yposition Zposition Xrotation Zrotation Yrotation 

		End Site
		{
			OFFSET	0.0	0.0	0.0
		}
}
MOTION
Frames:    14
Frame Time: 0.01
0.0 0 0 0 0 0
0.0 0 0 -0.00360 0 0
-0.03 0 0.004 -0.00360 0 0
-0.03 0.004 0 -0.00360 0 0
-0.03 0 -0.004 -0.00360 0 0
-0.03 -0.004 0 -0.00360 0 0
-0.03 0 0.006 -0.00360 0 0
-0.03 0.01 0.004 -0.00360 0 0
-0.02 0.01 0.002 -0.00360 0 0
-0.01 0 0 -0.00360 0 0
-0.01 0 0 -0.00360 0 0
-0.017 0 0 -0.00360 0 0
-0.017 0 0 -0.00360 0 0
-0.017 0 0 -0.00360 0 0
